@startuml
class users{
   <b>user_id</b> （用户ID）
   name （用户真实姓名）
   github_username （用户GitHub账号）
   update_date （用户GitHub账号修改日期）
   password （用户密码）
   disable （用户是否禁用）

}
class students{
    <b>student_id</b> （学号）
     class （班级）
     result_sum（成绩汇总）
     web_sum （网站正确与否汇总）

}
class teachers{
    <b>teacher_id</b> （老师工号）
     department （老师所属部门）
}
class grades{
    <b>student_id</b>（学号）
    <b>test_id</b>（实验编号）
    resuit （分数）
    memo （评价）
    update_date （评改日期）
}
class tests {
   <b>user_id</b> （用户ID）
    title （实验名称）
}
class class{
    <b>class_id</b>（班级编号）
    major （专业）
    headmaster（班主任）
    class_no(班级名)
}
class course{
    <b>course_id</b>（课程id）
    course_name（课程名字）
    learnHours（学时）
    college（开课学院）
}
class course_te_stu{
    <b>courseInfo_id</b> （选课编号）
    teacher_id（老师工号）
    student_id（学号）
}
users <|-- students
users <|-- teachers
students "n" -- "1"class
students "1"  -- "n" tests
course_te_stu "n" --"1" course
course_te_stu "n" -- "1" students
course_te_stu "n" -- "1" teachers
students"1" --  "n"grades
tests"1" --  "n"grades
@enduml